<svg width="258" height="256" viewBox="0 0 258 256" fill="none" xmlns="http://www.w3.org/2000/svg">
    <ellipse cx="129" cy="128" rx="129" ry="128" fill="white"/>
    <circle cx="129" cy="127" r="120" fill="#FEE575"/>
    <path d="M99.544 107.768L99.328 110.504L99.04 110.792C98.272 110.792 97.552 110.84 96.88 110.936C96.208 110.984 95.632 111.176 95.152 111.512C94.72 111.848 94.312 112.28 93.928 112.808C93.592 113.336 93.424 114.272 93.424 115.616C93.376 116.288 93.328 116.912 93.28 117.488C93.28 118.064 93.256 118.736 93.208 119.504C93.208 120.272 93.208 121.208 93.208 122.312C93.208 123.416 93.208 124.832 93.208 126.56V136.928C93.208 138.656 93.208 140.072 93.208 141.176C93.208 142.232 93.208 143.12 93.208 143.84C93.256 144.56 93.28 145.184 93.28 145.712C93.328 146.192 93.376 146.72 93.424 147.296C93.52 148.64 93.736 149.576 94.072 150.104C94.408 150.632 94.768 151.064 95.152 151.4C95.584 151.736 96.136 151.952 96.808 152.048C97.528 152.096 98.272 152.12 99.04 152.12L99.328 152.408L99.544 155.144L99.4 155.432C99.064 155.432 98.512 155.408 97.744 155.36C96.976 155.312 96.184 155.264 95.368 155.216C94.552 155.168 93.76 155.12 92.992 155.072C92.224 155.024 91.672 155 91.336 155H87.088C86.752 155 86.2 155.024 85.432 155.072C84.664 155.12 83.872 155.168 83.056 155.216C82.24 155.264 81.448 155.312 80.68 155.36C79.912 155.408 79.36 155.432 79.024 155.432L78.88 155.144L79.096 152.408L79.456 152.12C80.224 152.12 80.944 152.096 81.616 152.048C82.336 151.952 82.888 151.736 83.272 151.4C83.656 151.064 83.992 150.632 84.28 150.104C84.616 149.576 84.88 148.64 85.072 147.296C85.072 146.96 85.072 146.576 85.072 146.144C85.12 145.664 85.144 145.088 85.144 144.416C85.192 143.744 85.216 142.928 85.216 141.968C85.216 141.008 85.216 139.808 85.216 138.368V126.632C85.216 124.952 85.216 123.536 85.216 122.384C85.216 121.232 85.192 120.248 85.144 119.432C85.144 118.616 85.12 117.92 85.072 117.344C85.072 116.768 85.048 116.192 85 115.616C84.904 114.368 84.688 113.456 84.352 112.88C84.016 112.304 83.656 111.848 83.272 111.512C82.84 111.176 82.288 110.984 81.616 110.936C80.944 110.84 80.224 110.792 79.456 110.792L79.096 110.504L78.88 107.768L79.024 107.48C79.36 107.48 79.912 107.504 80.68 107.552C81.448 107.6 82.24 107.648 83.056 107.696C83.872 107.744 84.664 107.792 85.432 107.84C86.2 107.888 86.752 107.912 87.088 107.912H91.336C91.672 107.912 92.224 107.888 92.992 107.84C93.76 107.792 94.552 107.744 95.368 107.696C96.184 107.648 96.976 107.6 97.744 107.552C98.512 107.504 99.064 107.48 99.4 107.48L99.544 107.768ZM134.838 155.432C134.502 155.432 133.974 155.408 133.254 155.36C132.534 155.312 131.766 155.264 130.95 155.216C130.134 155.168 129.366 155.12 128.646 155.072C127.926 155.024 127.398 155 127.062 155H120.078C119.742 155 119.214 155.024 118.494 155.072C117.774 155.12 117.006 155.168 116.19 155.216C115.422 155.264 114.678 155.312 113.958 155.36C113.238 155.408 112.71 155.432 112.374 155.432L112.23 155.144L112.446 152.408L112.806 152.12C113.526 152.12 114.366 152.096 115.326 152.048C116.334 152 117.054 151.784 117.486 151.4C117.87 151.064 118.254 150.632 118.638 150.104C119.022 149.576 119.286 148.64 119.43 147.296C119.478 146.96 119.502 146.576 119.502 146.144C119.55 145.664 119.574 145.088 119.574 144.416C119.622 143.744 119.646 142.928 119.646 141.968C119.646 141.008 119.646 139.808 119.646 138.368V125.192C119.646 122.552 119.622 120.2 119.574 118.136C119.526 116.072 119.478 114.536 119.43 113.528H118.638C116.814 113.528 115.302 113.552 114.102 113.6C112.902 113.6 111.942 113.648 111.222 113.744C110.502 113.792 109.95 113.864 109.566 113.96C109.23 114.056 108.99 114.176 108.846 114.32C108.318 114.56 107.886 114.944 107.55 115.472C107.214 116 106.998 116.624 106.902 117.344L106.614 117.632H103.518L104.022 107.984L104.31 107.336L104.742 107.12C105.126 107.264 105.966 107.408 107.262 107.552C108.558 107.648 109.974 107.72 111.51 107.768C113.046 107.816 114.51 107.864 115.902 107.912C117.342 107.912 118.374 107.912 118.998 107.912H128.07C128.694 107.912 129.702 107.912 131.094 107.912C132.534 107.864 134.022 107.816 135.558 107.768C137.094 107.72 138.51 107.648 139.806 107.552C141.102 107.408 141.942 107.264 142.326 107.12L142.758 107.336L143.046 107.984L143.622 117.632H140.453L140.166 117.344C140.07 116.624 139.854 116 139.518 115.472C139.182 114.944 138.75 114.56 138.222 114.32C138.078 114.128 137.814 113.984 137.43 113.888C137.094 113.744 136.566 113.648 135.846 113.6C135.126 113.552 134.166 113.528 132.966 113.528C131.814 113.528 130.326 113.528 128.502 113.528H127.71C127.662 114.68 127.614 116.216 127.566 118.136C127.566 120.056 127.566 122.384 127.566 125.12V136.928C127.566 138.656 127.566 140.072 127.566 141.176C127.566 142.232 127.566 143.12 127.566 143.84C127.614 144.56 127.638 145.184 127.638 145.712C127.686 146.192 127.734 146.72 127.782 147.296C127.878 148.688 128.142 149.648 128.574 150.176C129.006 150.704 129.414 151.112 129.798 151.4C129.99 151.592 130.254 151.736 130.59 151.832C130.974 151.928 131.382 152 131.814 152.048C132.246 152.096 132.678 152.12 133.11 152.12C133.59 152.12 134.022 152.12 134.406 152.12L134.766 152.408L134.982 155.144L134.838 155.432ZM177.095 155.432C176.759 155.432 176.231 155.408 175.511 155.36C174.791 155.312 174.023 155.264 173.207 155.216C172.391 155.168 171.623 155.12 170.903 155.072C170.183 155.024 169.655 155 169.319 155H162.335C161.999 155 161.471 155.024 160.751 155.072C160.031 155.12 159.263 155.168 158.447 155.216C157.679 155.264 156.935 155.312 156.215 155.36C155.495 155.408 154.967 155.432 154.631 155.432L154.487 155.144L154.703 152.408L155.063 152.12C155.783 152.12 156.623 152.096 157.583 152.048C158.591 152 159.311 151.784 159.743 151.4C160.127 151.064 160.511 150.632 160.895 150.104C161.279 149.576 161.543 148.64 161.687 147.296C161.735 146.96 161.759 146.576 161.759 146.144C161.807 145.664 161.831 145.088 161.831 144.416C161.879 143.744 161.903 142.928 161.903 141.968C161.903 141.008 161.903 139.808 161.903 138.368V125.192C161.903 122.552 161.879 120.2 161.831 118.136C161.783 116.072 161.735 114.536 161.687 113.528H160.895C159.071 113.528 157.559 113.552 156.359 113.6C155.159 113.6 154.199 113.648 153.479 113.744C152.759 113.792 152.207 113.864 151.823 113.96C151.487 114.056 151.247 114.176 151.103 114.32C150.575 114.56 150.143 114.944 149.807 115.472C149.471 116 149.255 116.624 149.159 117.344L148.871 117.632H145.775L146.279 107.984L146.567 107.336L146.999 107.12C147.383 107.264 148.223 107.408 149.519 107.552C150.815 107.648 152.231 107.72 153.767 107.768C155.303 107.816 156.767 107.864 158.159 107.912C159.599 107.912 160.631 107.912 161.255 107.912H170.327C170.951 107.912 171.959 107.912 173.351 107.912C174.791 107.864 176.279 107.816 177.815 107.768C179.351 107.72 180.767 107.648 182.063 107.552C183.359 107.408 184.199 107.264 184.583 107.12L185.015 107.336L185.303 107.984L185.879 117.632H182.711L182.423 117.344C182.327 116.624 182.111 116 181.775 115.472C181.439 114.944 181.007 114.56 180.479 114.32C180.335 114.128 180.071 113.984 179.687 113.888C179.351 113.744 178.823 113.648 178.103 113.6C177.383 113.552 176.423 113.528 175.223 113.528C174.071 113.528 172.583 113.528 170.759 113.528H169.967C169.919 114.68 169.871 116.216 169.823 118.136C169.823 120.056 169.823 122.384 169.823 125.12V136.928C169.823 138.656 169.823 140.072 169.823 141.176C169.823 142.232 169.823 143.12 169.823 143.84C169.871 144.56 169.895 145.184 169.895 145.712C169.943 146.192 169.991 146.72 170.039 147.296C170.135 148.688 170.399 149.648 170.831 150.176C171.263 150.704 171.671 151.112 172.055 151.4C172.247 151.592 172.511 151.736 172.847 151.832C173.231 151.928 173.639 152 174.071 152.048C174.503 152.096 174.935 152.12 175.367 152.12C175.847 152.12 176.279 152.12 176.663 152.12L177.023 152.408L177.239 155.144L177.095 155.432Z" fill="black"/>
</svg>
